# xmcd
#
# Track frame offsets:
#	150
#	31309
#	50162
#	64673
#	79437
#	98878
#	112534
#	131237
#	148114
#	167935
#	185190
#	203608
#	217653
#	233161
#	249151
#
# Disc length: 3684 seconds
#
# Revision: 0
# Processed by: cddbd v1.5.2PL0 Copyright (c) Steve Scherf et al.
# Submitted via: dBpowerAMP V4.0
#
DISCID=d40e620f
DTITLE=Orquestra de Violas Valinhos - Orquestra de Violas Cultura Caipira Valinhos
DYEAR=2012
DGENRE=
TTITLE0=Caipira
TTITLE1=Obras de Um Poeta
TTITLE2=Saco de Ouro
TTITLE3=Brasil Caboclo
TTITLE4=Caminheiro
TTITLE5=Chalana
TTITLE6=Filho do Mato
TTITLE7=Franguinho na Panela
TTITLE8=Boiadeiro Errante
TTITLE9=Rolinha Cabocla
TTITLE10=Filho Pródigo
TTITLE11=Cuitelinho
TTITLE12=Saudades da Minha Terra
TTITLE13=O Ipê e o Prisioneiro
TTITLE14=Vide Vida Marvada
EXTD=
EXTT0=
EXTT1=
EXTT2=
EXTT3=
EXTT4=
EXTT5=
EXTT6=
EXTT7=
EXTT8=
EXTT9=
EXTT10=
EXTT11=
EXTT12=
EXTT13=
EXTT14=
PLAYORDER=
